<?xml version='1.0' encoding='UTF-8'?>
<svg width="53mm" height="53mm" version="1.1" viewBox="0 0 53 53" xmlns="http://www.w3.org/2000/svg"><path d="M4,4H5V5H4zM5,4H6V5H5zM6,4H7V5H6zM7,4H8V5H7zM8,4H9V5H8zM9,4H10V5H9zM10,4H11V5H10zM13,4H14V5H13zM15,4H16V5H15zM18,4H19V5H18zM19,4H20V5H19zM20,4H21V5H20zM23,4H24V5H23zM25,4H26V5H25zM26,4H27V5H26zM28,4H29V5H28zM29,4H30V5H29zM30,4H31V5H30zM31,4H32V5H31zM33,4H34V5H33zM34,4H35V5H34zM36,4H37V5H36zM37,4H38V5H37zM40,4H41V5H40zM42,4H43V5H42zM43,4H44V5H43zM44,4H45V5H44zM45,4H46V5H45zM46,4H47V5H46zM47,4H48V5H47zM48,4H49V5H48zM4,5H5V6H4zM10,5H11V6H10zM12,5H13V6H12zM13,5H14V6H13zM18,5H19V6H18zM19,5H20V6H19zM20,5H21V6H20zM24,5H25V6H24zM25,5H26V6H25zM26,5H27V6H26zM28,5H29V6H28zM35,5H36V6H35zM36,5H37V6H36zM39,5H40V6H39zM42,5H43V6H42zM48,5H49V6H48zM4,6H5V7H4zM6,6H7V7H6zM7,6H8V7H7zM8,6H9V7H8zM10,6H11V7H10zM14,6H15V7H14zM25,6H26V7H25zM28,6H29V7H28zM29,6H30V7H29zM30,6H31V7H30zM31,6H32V7H31zM33,6H34V7H33zM37,6H38V7H37zM39,6H40V7H39zM42,6H43V7H42zM44,6H45V7H44zM45,6H46V7H45zM46,6H47V7H46zM48,6H49V7H48zM4,7H5V8H4zM6,7H7V8H6zM7,7H8V8H7zM8,7H9V8H8zM10,7H11V8H10zM17,7H18V8H17zM18,7H19V8H18zM20,7H21V8H20zM21,7H22V8H21zM24,7H25V8H24zM25,7H26V8H25zM27,7H28V8H27zM28,7H29V8H28zM29,7H30V8H29zM35,7H36V8H35zM36,7H37V8H36zM37,7H38V8H37zM39,7H40V8H39zM40,7H41V8H40zM42,7H43V8H42zM44,7H45V8H44zM45,7H46V8H45zM46,7H47V8H46zM48,7H49V8H48zM4,8H5V9H4zM6,8H7V9H6zM7,8H8V9H7zM8,8H9V9H8zM10,8H11V9H10zM15,8H16V9H15zM17,8H18V9H17zM20,8H21V9H20zM23,8H24V9H23zM24,8H25V9H24zM25,8H26V9H25zM26,8H27V9H26zM27,8H28V9H27zM28,8H29V9H28zM32,8H33V9H32zM33,8H34V9H33zM34,8H35V9H34zM35,8H36V9H35zM37,8H38V9H37zM38,8H39V9H38zM39,8H40V9H39zM40,8H41V9H40zM42,8H43V9H42zM44,8H45V9H44zM45,8H46V9H45zM46,8H47V9H46zM48,8H49V9H48zM4,9H5V10H4zM10,9H11V10H10zM12,9H13V10H12zM15,9H16V10H15zM18,9H19V10H18zM19,9H20V10H19zM21,9H22V10H21zM22,9H23V10H22zM23,9H24V10H23zM24,9H25V10H24zM28,9H29V10H28zM29,9H30V10H29zM30,9H31V10H30zM31,9H32V10H31zM32,9H33V10H32zM42,9H43V10H42zM48,9H49V10H48zM4,10H5V11H4zM5,10H6V11H5zM6,10H7V11H6zM7,10H8V11H7zM8,10H9V11H8zM9,10H10V11H9zM10,10H11V11H10zM12,10H13V11H12zM14,10H15V11H14zM16,10H17V11H16zM18,10H19V11H18zM20,10H21V11H20zM22,10H23V11H22zM24,10H25V11H24zM26,10H27V11H26zM28,10H29V11H28zM30,10H31V11H30zM32,10H33V11H32zM34,10H35V11H34zM36,10H37V11H36zM38,10H39V11H38zM40,10H41V11H40zM42,10H43V11H42zM43,10H44V11H43zM44,10H45V11H44zM45,10H46V11H45zM46,10H47V11H46zM47,10H48V11H47zM48,10H49V11H48zM12,11H13V12H12zM13,11H14V12H13zM14,11H15V12H14zM18,11H19V12H18zM20,11H21V12H20zM21,11H22V12H21zM24,11H25V12H24zM28,11H29V12H28zM29,11H30V12H29zM30,11H31V12H30zM31,11H32V12H31zM32,11H33V12H32zM33,11H34V12H33zM36,11H37V12H36zM8,12H9V13H8zM9,12H10V13H9zM10,12H11V13H10zM11,12H12V13H11zM13,12H14V13H13zM17,12H18V13H17zM18,12H19V13H18zM20,12H21V13H20zM23,12H24V13H23zM24,12H25V13H24zM25,12H26V13H25zM26,12H27V13H26zM27,12H28V13H27zM28,12H29V13H28zM29,12H30V13H29zM30,12H31V13H30zM34,12H35V13H34zM35,12H36V13H35zM36,12H37V13H36zM37,12H38V13H37zM38,12H39V13H38zM42,12H43V13H42zM43,12H44V13H43zM47,12H48V13H47zM5,13H6V14H5zM6,13H7V14H6zM7,13H8V14H7zM11,13H12V14H11zM12,13H13V14H12zM17,13H18V14H17zM18,13H19V14H18zM19,13H20V14H19zM20,13H21V14H20zM24,13H25V14H24zM26,13H27V14H26zM27,13H28V14H27zM28,13H29V14H28zM31,13H32V14H31zM33,13H34V14H33zM34,13H35V14H34zM39,13H40V14H39zM40,13H41V14H40zM41,13H42V14H41zM42,13H43V14H42zM44,13H45V14H44zM45,13H46V14H45zM46,13H47V14H46zM8,14H9V15H8zM9,14H10V15H9zM10,14H11V15H10zM12,14H13V15H12zM13,14H14V15H13zM16,14H17V15H16zM18,14H19V15H18zM19,14H20V15H19zM21,14H22V15H21zM22,14H23V15H22zM23,14H24V15H23zM26,14H27V15H26zM31,14H32V15H31zM34,14H35V15H34zM37,14H38V15H37zM39,14H40V15H39zM41,14H42V15H41zM42,14H43V15H42zM43,14H44V15H43zM44,14H45V15H44zM46,14H47V15H46zM47,14H48V15H47zM5,15H6V16H5zM6,15H7V16H6zM9,15H10V16H9zM19,15H20V16H19zM20,15H21V16H20zM23,15H24V16H23zM24,15H25V16H24zM25,15H26V16H25zM26,15H27V16H26zM27,15H28V16H27zM28,15H29V16H28zM29,15H30V16H29zM31,15H32V16H31zM34,15H35V16H34zM35,15H36V16H35zM36,15H37V16H36zM37,15H38V16H37zM43,15H44V16H43zM47,15H48V16H47zM48,15H49V16H48zM4,16H5V17H4zM5,16H6V17H5zM6,16H7V17H6zM7,16H8V17H7zM10,16H11V17H10zM11,16H12V17H11zM18,16H19V17H18zM20,16H21V17H20zM25,16H26V17H25zM26,16H27V17H26zM27,16H28V17H27zM28,16H29V17H28zM29,16H30V17H29zM31,16H32V17H31zM32,16H33V17H32zM33,16H34V17H33zM34,16H35V17H34zM36,16H37V17H36zM37,16H38V17H37zM41,16H42V17H41zM42,16H43V17H42zM43,16H44V17H43zM45,16H46V17H45zM4,17H5V18H4zM6,17H7V18H6zM8,17H9V18H8zM11,17H12V18H11zM12,17H13V18H12zM14,17H15V18H14zM15,17H16V18H15zM16,17H17V18H16zM19,17H20V18H19zM21,17H22V18H21zM22,17H23V18H22zM24,17H25V18H24zM27,17H28V18H27zM29,17H30V18H29zM31,17H32V18H31zM32,17H33V18H32zM33,17H34V18H33zM34,17H35V18H34zM37,17H38V18H37zM40,17H41V18H40zM42,17H43V18H42zM43,17H44V18H43zM44,17H45V18H44zM47,17H48V18H47zM5,18H6V19H5zM10,18H11V19H10zM17,18H18V19H17zM18,18H19V19H18zM19,18H20V19H19zM21,18H22V19H21zM22,18H23V19H22zM23,18H24V19H23zM24,18H25V19H24zM25,18H26V19H25zM27,18H28V19H27zM32,18H33V19H32zM33,18H34V19H33zM34,18H35V19H34zM35,18H36V19H35zM36,18H37V19H36zM39,18H40V19H39zM40,18H41V19H40zM41,18H42V19H41zM42,18H43V19H42zM44,18H45V19H44zM45,18H46V19H45zM47,18H48V19H47zM4,19H5V20H4zM8,19H9V20H8zM9,19H10V20H9zM12,19H13V20H12zM13,19H14V20H13zM15,19H16V20H15zM16,19H17V20H16zM18,19H19V20H18zM19,19H20V20H19zM24,19H25V20H24zM27,19H28V20H27zM33,19H34V20H33zM36,19H37V20H36zM39,19H40V20H39zM41,19H42V20H41zM42,19H43V20H42zM43,19H44V20H43zM48,19H49V20H48zM5,20H6V21H5zM7,20H8V21H7zM9,20H10V21H9zM10,20H11V21H10zM11,20H12V21H11zM13,20H14V21H13zM15,20H16V21H15zM19,20H20V21H19zM20,20H21V21H20zM21,20H22V21H21zM23,20H24V21H23zM24,20H25V21H24zM25,20H26V21H25zM26,20H27V21H26zM27,20H28V21H27zM31,20H32V21H31zM32,20H33V21H32zM33,20H34V21H33zM34,20H35V21H34zM36,20H37V21H36zM38,20H39V21H38zM41,20H42V21H41zM42,20H43V21H42zM43,20H44V21H43zM45,20H46V21H45zM5,21H6V22H5zM6,21H7V22H6zM8,21H9V22H8zM9,21H10V22H9zM11,21H12V22H11zM14,21H15V22H14zM15,21H16V22H15zM16,21H17V22H16zM17,21H18V22H17zM19,21H20V22H19zM21,21H22V22H21zM23,21H24V22H23zM24,21H25V22H24zM28,21H29V22H28zM32,21H33V22H32zM34,21H35V22H34zM36,21H37V22H36zM37,21H38V22H37zM39,21H40V22H39zM40,21H41V22H40zM42,21H43V22H42zM46,21H47V22H46zM4,22H5V23H4zM5,22H6V23H5zM7,22H8V23H7zM8,22H9V23H8zM10,22H11V23H10zM13,22H14V23H13zM15,22H16V23H15zM17,22H18V23H17zM18,22H19V23H18zM22,22H23V23H22zM23,22H24V23H23zM25,22H26V23H25zM26,22H27V23H26zM27,22H28V23H27zM28,22H29V23H28zM31,22H32V23H31zM35,22H36V23H35zM36,22H37V23H36zM37,22H38V23H37zM42,22H43V23H42zM44,22H45V23H44zM45,22H46V23H45zM46,22H47V23H46zM47,22H48V23H47zM5,23H6V24H5zM6,23H7V24H6zM8,23H9V24H8zM13,23H14V24H13zM14,23H15V24H14zM19,23H20V24H19zM20,23H21V24H20zM22,23H23V24H22zM24,23H25V24H24zM26,23H27V24H26zM27,23H28V24H27zM28,23H29V24H28zM29,23H30V24H29zM31,23H32V24H31zM32,23H33V24H32zM34,23H35V24H34zM36,23H37V24H36zM37,23H38V24H37zM38,23H39V24H38zM42,23H43V24H42zM43,23H44V24H43zM47,23H48V24H47zM4,24H5V25H4zM8,24H9V25H8zM9,24H10V25H9zM10,24H11V25H10zM11,24H12V25H11zM12,24H13V25H12zM14,24H15V25H14zM18,24H19V25H18zM20,24H21V25H20zM21,24H22V25H21zM22,24H23V25H22zM23,24H24V25H23zM24,24H25V25H24zM25,24H26V25H25zM26,24H27V25H26zM27,24H28V25H27zM28,24H29V25H28zM36,24H37V25H36zM37,24H38V25H37zM40,24H41V25H40zM41,24H42V25H41zM42,24H43V25H42zM43,24H44V25H43zM44,24H45V25H44zM45,24H46V25H45zM47,24H48V25H47zM48,24H49V25H48zM4,25H5V26H4zM8,25H9V26H8zM12,25H13V26H12zM14,25H15V26H14zM24,25H25V26H24zM28,25H29V26H28zM29,25H30V26H29zM31,25H32V26H31zM32,25H33V26H32zM33,25H34V26H33zM35,25H36V26H35zM37,25H38V26H37zM39,25H40V26H39zM40,25H41V26H40zM44,25H45V26H44zM45,25H46V26H45zM46,25H47V26H46zM47,25H48V26H47zM5,26H6V27H5zM6,26H7V27H6zM7,26H8V27H7zM8,26H9V27H8zM10,26H11V27H10zM12,26H13V27H12zM13,26H14V27H13zM14,26H15V27H14zM15,26H16V27H15zM16,26H17V27H16zM17,26H18V27H17zM20,26H21V27H20zM22,26H23V27H22zM23,26H24V27H23zM24,26H25V27H24zM26,26H27V27H26zM28,26H29V27H28zM30,26H31V27H30zM31,26H32V27H31zM33,26H34V27H33zM35,26H36V27H35zM36,26H37V27H36zM37,26H38V27H37zM39,26H40V27H39zM40,26H41V27H40zM42,26H43V27H42zM44,26H45V27H44zM46,26H47V27H46zM47,26H48V27H47zM4,27H5V28H4zM8,27H9V28H8zM12,27H13V28H12zM17,27H18V28H17zM22,27H23V28H22zM24,27H25V28H24zM28,27H29V28H28zM29,27H30V28H29zM30,27H31V28H30zM31,27H32V28H31zM34,27H35V28H34zM35,27H36V28H35zM39,27H40V28H39zM40,27H41V28H40zM44,27H45V28H44zM47,27H48V28H47zM48,27H49V28H48zM4,28H5V29H4zM5,28H6V29H5zM7,28H8V29H7zM8,28H9V29H8zM9,28H10V29H9zM10,28H11V29H10zM11,28H12V29H11zM12,28H13V29H12zM14,28H15V29H14zM16,28H17V29H16zM18,28H19V29H18zM20,28H21V29H20zM22,28H23V29H22zM23,28H24V29H23zM24,28H25V29H24zM25,28H26V29H25zM26,28H27V29H26zM27,28H28V29H27zM28,28H29V29H28zM30,28H31V29H30zM32,28H33V29H32zM33,28H34V29H33zM35,28H36V29H35zM36,28H37V29H36zM37,28H38V29H37zM38,28H39V29H38zM40,28H41V29H40zM41,28H42V29H41zM42,28H43V29H42zM43,28H44V29H43zM44,28H45V29H44zM47,28H48V29H47zM4,29H5V30H4zM5,29H6V30H5zM6,29H7V30H6zM8,29H9V30H8zM11,29H12V30H11zM17,29H18V30H17zM20,29H21V30H20zM21,29H22V30H21zM27,29H28V30H27zM30,29H31V30H30zM31,29H32V30H31zM32,29H33V30H32zM33,29H34V30H33zM34,29H35V30H34zM36,29H37V30H36zM39,29H40V30H39zM40,29H41V30H40zM41,29H42V30H41zM42,29H43V30H42zM43,29H44V30H43zM45,29H46V30H45zM46,29H47V30H46zM47,29H48V30H47zM5,30H6V31H5zM7,30H8V31H7zM10,30H11V31H10zM15,30H16V31H15zM17,30H18V31H17zM18,30H19V31H18zM19,30H20V31H19zM22,30H23V31H22zM26,30H27V31H26zM31,30H32V31H31zM33,30H34V31H33zM37,30H38V31H37zM38,30H39V31H38zM40,30H41V31H40zM41,30H42V31H41zM44,30H45V31H44zM45,30H46V31H45zM47,30H48V31H47zM5,31H6V32H5zM6,31H7V32H6zM7,31H8V32H7zM8,31H9V32H8zM9,31H10V32H9zM12,31H13V32H12zM13,31H14V32H13zM14,31H15V32H14zM16,31H17V32H16zM17,31H18V32H17zM18,31H19V32H18zM19,31H20V32H19zM23,31H24V32H23zM24,31H25V32H24zM25,31H26V32H25zM26,31H27V32H26zM30,31H31V32H30zM32,31H33V32H32zM33,31H34V32H33zM34,31H35V32H34zM35,31H36V32H35zM36,31H37V32H36zM41,31H42V32H41zM42,31H43V32H42zM43,31H44V32H43zM44,31H45V32H44zM47,31H48V32H47zM48,31H49V32H48zM5,32H6V33H5zM6,32H7V33H6zM8,32H9V33H8zM10,32H11V33H10zM14,32H15V33H14zM15,32H16V33H15zM16,32H17V33H16zM23,32H24V33H23zM26,32H27V33H26zM27,32H28V33H27zM30,32H31V33H30zM32,32H33V33H32zM33,32H34V33H33zM34,32H35V33H34zM36,32H37V33H36zM37,32H38V33H37zM38,32H39V33H38zM40,32H41V33H40zM42,32H43V33H42zM43,32H44V33H43zM44,32H45V33H44zM47,32H48V33H47zM48,32H49V33H48zM6,33H7V34H6zM9,33H10V34H9zM11,33H12V34H11zM16,33H17V34H16zM17,33H18V34H17zM18,33H19V34H18zM19,33H20V34H19zM20,33H21V34H20zM22,33H23V34H22zM24,33H25V34H24zM25,33H26V34H25zM26,33H27V34H26zM27,33H28V34H27zM28,33H29V34H28zM29,33H30V34H29zM30,33H31V34H30zM33,33H34V34H33zM34,33H35V34H34zM37,33H38V34H37zM39,33H40V34H39zM40,33H41V34H40zM42,33H43V34H42zM43,33H44V34H43zM45,33H46V34H45zM46,33H47V34H46zM47,33H48V34H47zM7,34H8V35H7zM8,34H9V35H8zM9,34H10V35H9zM10,34H11V35H10zM12,34H13V35H12zM13,34H14V35H13zM18,34H19V35H18zM19,34H20V35H19zM20,34H21V35H20zM22,34H23V35H22zM27,34H28V35H27zM29,34H30V35H29zM30,34H31V35H30zM31,34H32V35H31zM32,34H33V35H32zM35,34H36V35H35zM36,34H37V35H36zM37,34H38V35H37zM39,34H40V35H39zM43,34H44V35H43zM44,34H45V35H44zM47,34H48V35H47zM8,35H9V36H8zM11,35H12V36H11zM13,35H14V36H13zM14,35H15V36H14zM15,35H16V36H15zM22,35H23V36H22zM24,35H25V36H24zM25,35H26V36H25zM26,35H27V36H26zM27,35H28V36H27zM31,35H32V36H31zM32,35H33V36H32zM34,35H35V36H34zM36,35H37V36H36zM37,35H38V36H37zM38,35H39V36H38zM40,35H41V36H40zM42,35H43V36H42zM44,35H45V36H44zM45,35H46V36H45zM48,35H49V36H48zM4,36H5V37H4zM9,36H10V37H9zM10,36H11V37H10zM11,36H12V37H11zM12,36H13V37H12zM14,36H15V37H14zM18,36H19V37H18zM20,36H21V37H20zM22,36H23V37H22zM23,36H24V37H23zM24,36H25V37H24zM25,36H26V37H25zM27,36H28V37H27zM28,36H29V37H28zM30,36H31V37H30zM32,36H33V37H32zM34,36H35V37H34zM35,36H36V37H35zM36,36H37V37H36zM38,36H39V37H38zM41,36H42V37H41zM42,36H43V37H42zM43,36H44V37H43zM44,36H45V37H44zM47,36H48V37H47zM48,36H49V37H48zM4,37H5V38H4zM5,37H6V38H5zM7,37H8V38H7zM8,37H9V38H8zM9,37H10V38H9zM11,37H12V38H11zM13,37H14V38H13zM16,37H17V38H16zM17,37H18V38H17zM19,37H20V38H19zM21,37H22V38H21zM23,37H24V38H23zM25,37H26V38H25zM26,37H27V38H26zM27,37H28V38H27zM28,37H29V38H28zM29,37H30V38H29zM32,37H33V38H32zM34,37H35V38H34zM37,37H38V38H37zM41,37H42V38H41zM42,37H43V38H42zM45,37H46V38H45zM46,37H47V38H46zM47,37H48V38H47zM8,38H9V39H8zM10,38H11V39H10zM12,38H13V39H12zM13,38H14V39H13zM16,38H17V39H16zM17,38H18V39H17zM19,38H20V39H19zM22,38H23V39H22zM23,38H24V39H23zM24,38H25V39H24zM28,38H29V39H28zM29,38H30V39H29zM33,38H34V39H33zM34,38H35V39H34zM35,38H36V39H35zM36,38H37V39H36zM37,38H38V39H37zM44,38H45V39H44zM45,38H46V39H45zM5,39H6V40H5zM6,39H7V40H6zM7,39H8V40H7zM8,39H9V40H8zM12,39H13V40H12zM13,39H14V40H13zM15,39H16V40H15zM16,39H17V40H16zM18,39H19V40H18zM23,39H24V40H23zM26,39H27V40H26zM28,39H29V40H28zM29,39H30V40H29zM30,39H31V40H30zM32,39H33V40H32zM33,39H34V40H33zM34,39H35V40H34zM36,39H37V40H36zM37,39H38V40H37zM40,39H41V40H40zM41,39H42V40H41zM42,39H43V40H42zM47,39H48V40H47zM4,40H5V41H4zM7,40H8V41H7zM8,40H9V41H8zM10,40H11V41H10zM13,40H14V41H13zM14,40H15V41H14zM15,40H16V41H15zM16,40H17V41H16zM18,40H19V41H18zM20,40H21V41H20zM21,40H22V41H21zM22,40H23V41H22zM23,40H24V41H23zM24,40H25V41H24zM25,40H26V41H25zM26,40H27V41H26zM27,40H28V41H27zM28,40H29V41H28zM29,40H30V41H29zM30,40H31V41H30zM35,40H36V41H35zM36,40H37V41H36zM37,40H38V41H37zM40,40H41V41H40zM41,40H42V41H41zM42,40H43V41H42zM43,40H44V41H43zM44,40H45V41H44zM45,40H46V41H45zM47,40H48V41H47zM12,41H13V42H12zM13,41H14V42H13zM15,41H16V42H15zM16,41H17V42H16zM18,41H19V42H18zM19,41H20V42H19zM20,41H21V42H20zM21,41H22V42H21zM23,41H24V42H23zM24,41H25V42H24zM28,41H29V42H28zM30,41H31V42H30zM33,41H34V42H33zM37,41H38V42H37zM39,41H40V42H39zM40,41H41V42H40zM44,41H45V42H44zM45,41H46V42H45zM46,41H47V42H46zM47,41H48V42H47zM4,42H5V43H4zM5,42H6V43H5zM6,42H7V43H6zM7,42H8V43H7zM8,42H9V43H8zM9,42H10V43H9zM10,42H11V43H10zM12,42H13V43H12zM14,42H15V43H14zM16,42H17V43H16zM19,42H20V43H19zM20,42H21V43H20zM23,42H24V43H23zM24,42H25V43H24zM26,42H27V43H26zM28,42H29V43H28zM29,42H30V43H29zM32,42H33V43H32zM35,42H36V43H35zM36,42H37V43H36zM37,42H38V43H37zM39,42H40V43H39zM40,42H41V43H40zM42,42H43V43H42zM44,42H45V43H44zM45,42H46V43H45zM46,42H47V43H46zM47,42H48V43H47zM4,43H5V44H4zM10,43H11V44H10zM12,43H13V44H12zM13,43H14V44H13zM14,43H15V44H14zM15,43H16V44H15zM17,43H18V44H17zM18,43H19V44H18zM19,43H20V44H19zM22,43H23V44H22zM23,43H24V44H23zM24,43H25V44H24zM28,43H29V44H28zM29,43H30V44H29zM30,43H31V44H30zM32,43H33V44H32zM34,43H35V44H34zM36,43H37V44H36zM38,43H39V44H38zM40,43H41V44H40zM44,43H45V44H44zM47,43H48V44H47zM48,43H49V44H48zM4,44H5V45H4zM6,44H7V45H6zM7,44H8V45H7zM8,44H9V45H8zM10,44H11V45H10zM12,44H13V45H12zM13,44H14V45H13zM15,44H16V45H15zM16,44H17V45H16zM17,44H18V45H17zM19,44H20V45H19zM20,44H21V45H20zM21,44H22V45H21zM23,44H24V45H23zM24,44H25V45H24zM25,44H26V45H25zM26,44H27V45H26zM27,44H28V45H27zM28,44H29V45H28zM34,44H35V45H34zM36,44H37V45H36zM40,44H41V45H40zM41,44H42V45H41zM42,44H43V45H42zM43,44H44V45H43zM44,44H45V45H44zM47,44H48V45H47zM48,44H49V45H48zM4,45H5V46H4zM6,45H7V46H6zM7,45H8V46H7zM8,45H9V46H8zM10,45H11V46H10zM13,45H14V46H13zM14,45H15V46H14zM16,45H17V46H16zM17,45H18V46H17zM23,45H24V46H23zM24,45H25V46H24zM25,45H26V46H25zM28,45H29V46H28zM29,45H30V46H29zM32,45H33V46H32zM33,45H34V46H33zM36,45H37V46H36zM37,45H38V46H37zM41,45H42V46H41zM42,45H43V46H42zM44,45H45V46H44zM4,46H5V47H4zM6,46H7V47H6zM7,46H8V47H7zM8,46H9V47H8zM10,46H11V47H10zM13,46H14V47H13zM15,46H16V47H15zM16,46H17V47H16zM18,46H19V47H18zM19,46H20V47H19zM20,46H21V47H20zM22,46H23V47H22zM24,46H25V47H24zM27,46H28V47H27zM28,46H29V47H28zM29,46H30V47H29zM30,46H31V47H30zM31,46H32V47H31zM32,46H33V47H32zM33,46H34V47H33zM37,46H38V47H37zM41,46H42V47H41zM42,46H43V47H42zM44,46H45V47H44zM4,47H5V48H4zM10,47H11V48H10zM14,47H15V48H14zM16,47H17V48H16zM24,47H25V48H24zM27,47H28V48H27zM30,47H31V48H30zM33,47H34V48H33zM39,47H40V48H39zM44,47H45V48H44zM4,48H5V49H4zM5,48H6V49H5zM6,48H7V49H6zM7,48H8V49H7zM8,48H9V49H8zM9,48H10V49H9zM10,48H11V49H10zM14,48H15V49H14zM15,48H16V49H15zM16,48H17V49H16zM17,48H18V49H17zM19,48H20V49H19zM20,48H21V49H20zM22,48H23V49H22zM23,48H24V49H23zM27,48H28V49H27zM31,48H32V49H31zM32,48H33V49H32zM33,48H34V49H33zM34,48H35V49H34zM38,48H39V49H38zM43,48H44V49H43zM45,48H46V49H45zM48,48H49V49H48z" id="qr-path" fill="#000000" fill-opacity="1" fill-rule="nonzero" stroke="none"/></svg>