<?xml version='1.0' encoding='UTF-8'?>
<svg width="53mm" height="53mm" version="1.1" viewBox="0 0 53 53" xmlns="http://www.w3.org/2000/svg"><path d="M4,4H5V5H4zM5,4H6V5H5zM6,4H7V5H6zM7,4H8V5H7zM8,4H9V5H8zM9,4H10V5H9zM10,4H11V5H10zM12,4H13V5H12zM13,4H14V5H13zM15,4H16V5H15zM17,4H18V5H17zM18,4H19V5H18zM19,4H20V5H19zM20,4H21V5H20zM21,4H22V5H21zM22,4H23V5H22zM23,4H24V5H23zM30,4H31V5H30zM31,4H32V5H31zM33,4H34V5H33zM34,4H35V5H34zM40,4H41V5H40zM42,4H43V5H42zM43,4H44V5H43zM44,4H45V5H44zM45,4H46V5H45zM46,4H47V5H46zM47,4H48V5H47zM48,4H49V5H48zM4,5H5V6H4zM10,5H11V6H10zM12,5H13V6H12zM14,5H15V6H14zM16,5H17V6H16zM17,5H18V6H17zM19,5H20V6H19zM20,5H21V6H20zM21,5H22V6H21zM22,5H23V6H22zM24,5H25V6H24zM26,5H27V6H26zM27,5H28V6H27zM29,5H30V6H29zM30,5H31V6H30zM31,5H32V6H31zM32,5H33V6H32zM35,5H36V6H35zM37,5H38V6H37zM39,5H40V6H39zM42,5H43V6H42zM48,5H49V6H48zM4,6H5V7H4zM6,6H7V7H6zM7,6H8V7H7zM8,6H9V7H8zM10,6H11V7H10zM12,6H13V7H12zM14,6H15V7H14zM15,6H16V7H15zM16,6H17V7H16zM18,6H19V7H18zM19,6H20V7H19zM21,6H22V7H21zM22,6H23V7H22zM24,6H25V7H24zM25,6H26V7H25zM26,6H27V7H26zM27,6H28V7H27zM28,6H29V7H28zM29,6H30V7H29zM31,6H32V7H31zM32,6H33V7H32zM34,6H35V7H34zM37,6H38V7H37zM39,6H40V7H39zM42,6H43V7H42zM44,6H45V7H44zM45,6H46V7H45zM46,6H47V7H46zM48,6H49V7H48zM4,7H5V8H4zM6,7H7V8H6zM7,7H8V8H7zM8,7H9V8H8zM10,7H11V8H10zM16,7H17V8H16zM19,7H20V8H19zM20,7H21V8H20zM27,7H28V8H27zM28,7H29V8H28zM32,7H33V8H32zM33,7H34V8H33zM34,7H35V8H34zM35,7H36V8H35zM36,7H37V8H36zM37,7H38V8H37zM39,7H40V8H39zM40,7H41V8H40zM42,7H43V8H42zM44,7H45V8H44zM45,7H46V8H45zM46,7H47V8H46zM48,7H49V8H48zM4,8H5V9H4zM6,8H7V9H6zM7,8H8V9H7zM8,8H9V9H8zM10,8H11V9H10zM13,8H14V9H13zM14,8H15V9H14zM18,8H19V9H18zM20,8H21V9H20zM21,8H22V9H21zM23,8H24V9H23zM24,8H25V9H24zM25,8H26V9H25zM26,8H27V9H26zM27,8H28V9H27zM28,8H29V9H28zM29,8H30V9H29zM31,8H32V9H31zM33,8H34V9H33zM34,8H35V9H34zM36,8H37V9H36zM38,8H39V9H38zM39,8H40V9H39zM40,8H41V9H40zM42,8H43V9H42zM44,8H45V9H44zM45,8H46V9H45zM46,8H47V9H46zM48,8H49V9H48zM4,9H5V10H4zM10,9H11V10H10zM12,9H13V10H12zM14,9H15V10H14zM15,9H16V10H15zM18,9H19V10H18zM19,9H20V10H19zM21,9H22V10H21zM24,9H25V10H24zM28,9H29V10H28zM29,9H30V10H29zM33,9H34V10H33zM35,9H36V10H35zM36,9H37V10H36zM42,9H43V10H42zM48,9H49V10H48zM4,10H5V11H4zM5,10H6V11H5zM6,10H7V11H6zM7,10H8V11H7zM8,10H9V11H8zM9,10H10V11H9zM10,10H11V11H10zM12,10H13V11H12zM14,10H15V11H14zM16,10H17V11H16zM18,10H19V11H18zM20,10H21V11H20zM22,10H23V11H22zM24,10H25V11H24zM26,10H27V11H26zM28,10H29V11H28zM30,10H31V11H30zM32,10H33V11H32zM34,10H35V11H34zM36,10H37V11H36zM38,10H39V11H38zM40,10H41V11H40zM42,10H43V11H42zM43,10H44V11H43zM44,10H45V11H44zM45,10H46V11H45zM46,10H47V11H46zM47,10H48V11H47zM48,10H49V11H48zM12,11H13V12H12zM14,11H15V12H14zM16,11H17V12H16zM19,11H20V12H19zM20,11H21V12H20zM21,11H22V12H21zM22,11H23V12H22zM23,11H24V12H23zM24,11H25V12H24zM28,11H29V12H28zM30,11H31V12H30zM31,11H32V12H31zM32,11H33V12H32zM33,11H34V12H33zM35,11H36V12H35zM36,11H37V12H36zM38,11H39V12H38zM40,11H41V12H40zM6,12H7V13H6zM7,12H8V13H7zM8,12H9V13H8zM10,12H11V13H10zM12,12H13V13H12zM13,12H14V13H13zM14,12H15V13H14zM15,12H16V13H15zM16,12H17V13H16zM18,12H19V13H18zM19,12H20V13H19zM21,12H22V13H21zM22,12H23V13H22zM23,12H24V13H23zM24,12H25V13H24zM25,12H26V13H25zM26,12H27V13H26zM27,12H28V13H27zM28,12H29V13H28zM30,12H31V13H30zM33,12H34V13H33zM35,12H36V13H35zM38,12H39V13H38zM41,12H42V13H41zM42,12H43V13H42zM43,12H44V13H43zM46,12H47V13H46zM47,12H48V13H47zM48,12H49V13H48zM4,13H5V14H4zM6,13H7V14H6zM7,13H8V14H7zM9,13H10V14H9zM11,13H12V14H11zM12,13H13V14H12zM19,13H20V14H19zM22,13H23V14H22zM23,13H24V14H23zM25,13H26V14H25zM26,13H27V14H26zM29,13H30V14H29zM30,13H31V14H30zM31,13H32V14H31zM32,13H33V14H32zM33,13H34V14H33zM34,13H35V14H34zM35,13H36V14H35zM36,13H37V14H36zM37,13H38V14H37zM39,13H40V14H39zM40,13H41V14H40zM46,13H47V14H46zM48,13H49V14H48zM4,14H5V15H4zM9,14H10V15H9zM10,14H11V15H10zM12,14H13V15H12zM15,14H16V15H15zM16,14H17V15H16zM17,14H18V15H17zM20,14H21V15H20zM21,14H22V15H21zM23,14H24V15H23zM25,14H26V15H25zM29,14H30V15H29zM32,14H33V15H32zM33,14H34V15H33zM35,14H36V15H35zM36,14H37V15H36zM37,14H38V15H37zM38,14H39V15H38zM39,14H40V15H39zM40,14H41V15H40zM41,14H42V15H41zM42,14H43V15H42zM44,14H45V15H44zM45,14H46V15H45zM47,14H48V15H47zM5,15H6V16H5zM6,15H7V16H6zM7,15H8V16H7zM9,15H10V16H9zM11,15H12V16H11zM14,15H15V16H14zM15,15H16V16H15zM17,15H18V16H17zM18,15H19V16H18zM19,15H20V16H19zM20,15H21V16H20zM21,15H22V16H21zM22,15H23V16H22zM23,15H24V16H23zM24,15H25V16H24zM25,15H26V16H25zM27,15H28V16H27zM28,15H29V16H28zM30,15H31V16H30zM31,15H32V16H31zM32,15H33V16H32zM34,15H35V16H34zM36,15H37V16H36zM37,15H38V16H37zM39,15H40V16H39zM43,15H44V16H43zM44,15H45V16H44zM45,15H46V16H45zM46,15H47V16H46zM48,15H49V16H48zM4,16H5V17H4zM6,16H7V17H6zM10,16H11V17H10zM11,16H12V17H11zM14,16H15V17H14zM15,16H16V17H15zM16,16H17V17H16zM17,16H18V17H17zM18,16H19V17H18zM19,16H20V17H19zM20,16H21V17H20zM21,16H22V17H21zM22,16H23V17H22zM23,16H24V17H23zM24,16H25V17H24zM28,16H29V17H28zM29,16H30V17H29zM31,16H32V17H31zM33,16H34V17H33zM4,17H5V18H4zM6,17H7V18H6zM7,17H8V18H7zM9,17H10V18H9zM11,17H12V18H11zM15,17H16V18H15zM22,17H23V18H22zM23,17H24V18H23zM24,17H25V18H24zM25,17H26V18H25zM29,17H30V18H29zM34,17H35V18H34zM35,17H36V18H35zM39,17H40V18H39zM40,17H41V18H40zM41,17H42V18H41zM48,17H49V18H48zM4,18H5V19H4zM5,18H6V19H5zM7,18H8V19H7zM8,18H9V19H8zM9,18H10V19H9zM10,18H11V19H10zM11,18H12V19H11zM18,18H19V19H18zM19,18H20V19H19zM21,18H22V19H21zM23,18H24V19H23zM27,18H28V19H27zM28,18H29V19H28zM29,18H30V19H29zM30,18H31V19H30zM31,18H32V19H31zM36,18H37V19H36zM37,18H38V19H37zM38,18H39V19H38zM41,18H42V19H41zM42,18H43V19H42zM46,18H47V19H46zM47,18H48V19H47zM5,19H6V20H5zM6,19H7V20H6zM7,19H8V20H7zM13,19H14V20H13zM17,19H18V20H17zM18,19H19V20H18zM19,19H20V20H19zM21,19H22V20H21zM23,19H24V20H23zM24,19H25V20H24zM27,19H28V20H27zM28,19H29V20H28zM30,19H31V20H30zM31,19H32V20H31zM32,19H33V20H32zM34,19H35V20H34zM36,19H37V20H36zM38,19H39V20H38zM40,19H41V20H40zM41,19H42V20H41zM42,19H43V20H42zM43,19H44V20H43zM44,19H45V20H44zM45,19H46V20H45zM46,19H47V20H46zM48,19H49V20H48zM7,20H8V21H7zM8,20H9V21H8zM10,20H11V21H10zM11,20H12V21H11zM13,20H14V21H13zM14,20H15V21H14zM15,20H16V21H15zM17,20H18V21H17zM18,20H19V21H18zM20,20H21V21H20zM22,20H23V21H22zM23,20H24V21H23zM26,20H27V21H26zM28,20H29V21H28zM33,20H34V21H33zM34,20H35V21H34zM35,20H36V21H35zM38,20H39V21H38zM41,20H42V21H41zM42,20H43V21H42zM45,20H46V21H45zM47,20H48V21H47zM4,21H5V22H4zM8,21H9V22H8zM9,21H10V22H9zM11,21H12V22H11zM16,21H17V22H16zM18,21H19V22H18zM19,21H20V22H19zM24,21H25V22H24zM26,21H27V22H26zM29,21H30V22H29zM32,21H33V22H32zM34,21H35V22H34zM35,21H36V22H35zM36,21H37V22H36zM37,21H38V22H37zM39,21H40V22H39zM40,21H41V22H40zM41,21H42V22H41zM43,21H44V22H43zM46,21H47V22H46zM48,21H49V22H48zM4,22H5V23H4zM6,22H7V23H6zM8,22H9V23H8zM9,22H10V23H9zM10,22H11V23H10zM11,22H12V23H11zM12,22H13V23H12zM13,22H14V23H13zM15,22H16V23H15zM19,22H20V23H19zM21,22H22V23H21zM22,22H23V23H22zM24,22H25V23H24zM25,22H26V23H25zM26,22H27V23H26zM27,22H28V23H27zM28,22H29V23H28zM30,22H31V23H30zM31,22H32V23H31zM33,22H34V23H33zM34,22H35V23H34zM37,22H38V23H37zM38,22H39V23H38zM39,22H40V23H39zM42,22H43V23H42zM43,22H44V23H43zM44,22H45V23H44zM47,22H48V23H47zM4,23H5V24H4zM5,23H6V24H5zM6,23H7V24H6zM7,23H8V24H7zM8,23H9V24H8zM9,23H10V24H9zM11,23H12V24H11zM13,23H14V24H13zM14,23H15V24H14zM15,23H16V24H15zM17,23H18V24H17zM18,23H19V24H18zM19,23H20V24H19zM21,23H22V24H21zM22,23H23V24H22zM24,23H25V24H24zM25,23H26V24H25zM27,23H28V24H27zM31,23H32V24H31zM32,23H33V24H32zM33,23H34V24H33zM35,23H36V24H35zM36,23H37V24H36zM39,23H40V24H39zM41,23H42V24H41zM43,23H44V24H43zM44,23H45V24H44zM46,23H47V24H46zM47,23H48V24H47zM8,24H9V25H8zM9,24H10V25H9zM10,24H11V25H10zM11,24H12V25H11zM12,24H13V25H12zM13,24H14V25H13zM14,24H15V25H14zM16,24H17V25H16zM18,24H19V25H18zM23,24H24V25H23zM24,24H25V25H24zM25,24H26V25H25zM26,24H27V25H26zM27,24H28V25H27zM28,24H29V25H28zM29,24H30V25H29zM32,24H33V25H32zM35,24H36V25H35zM37,24H38V25H37zM40,24H41V25H40zM41,24H42V25H41zM42,24H43V25H42zM43,24H44V25H43zM44,24H45V25H44zM47,24H48V25H47zM5,25H6V26H5zM6,25H7V26H6zM8,25H9V26H8zM12,25H13V26H12zM13,25H14V26H13zM18,25H19V26H18zM19,25H20V26H19zM20,25H21V26H20zM22,25H23V26H22zM23,25H24V26H23zM24,25H25V26H24zM28,25H29V26H28zM30,25H31V26H30zM32,25H33V26H32zM33,25H34V26H33zM35,25H36V26H35zM39,25H40V26H39zM40,25H41V26H40zM44,25H45V26H44zM46,25H47V26H46zM48,25H49V26H48zM6,26H7V27H6zM8,26H9V27H8zM10,26H11V27H10zM12,26H13V27H12zM13,26H14V27H13zM15,26H16V27H15zM18,26H19V27H18zM20,26H21V27H20zM21,26H22V27H21zM22,26H23V27H22zM23,26H24V27H23zM24,26H25V27H24zM26,26H27V27H26zM28,26H29V27H28zM29,26H30V27H29zM30,26H31V27H30zM31,26H32V27H31zM32,26H33V27H32zM34,26H35V27H34zM36,26H37V27H36zM37,26H38V27H37zM38,26H39V27H38zM40,26H41V27H40zM42,26H43V27H42zM44,26H45V27H44zM45,26H46V27H45zM46,26H47V27H46zM47,26H48V27H47zM8,27H9V28H8zM12,27H13V28H12zM13,27H14V28H13zM14,27H15V28H14zM16,27H17V28H16zM17,27H18V28H17zM19,27H20V28H19zM21,27H22V28H21zM23,27H24V28H23zM24,27H25V28H24zM28,27H29V28H28zM35,27H36V28H35zM40,27H41V28H40zM44,27H45V28H44zM45,27H46V28H45zM46,27H47V28H46zM47,27H48V28H47zM48,27H49V28H48zM5,28H6V29H5zM6,28H7V29H6zM7,28H8V29H7zM8,28H9V29H8zM9,28H10V29H9zM10,28H11V29H10zM11,28H12V29H11zM12,28H13V29H12zM13,28H14V29H13zM15,28H16V29H15zM16,28H17V29H16zM17,28H18V29H17zM18,28H19V29H18zM19,28H20V29H19zM21,28H22V29H21zM22,28H23V29H22zM24,28H25V29H24zM25,28H26V29H25zM26,28H27V29H26zM27,28H28V29H27zM28,28H29V29H28zM29,28H30V29H29zM31,28H32V29H31zM33,28H34V29H33zM34,28H35V29H34zM37,28H38V29H37zM38,28H39V29H38zM40,28H41V29H40zM41,28H42V29H41zM42,28H43V29H42zM43,28H44V29H43zM44,28H45V29H44zM48,28H49V29H48zM6,29H7V30H6zM8,29H9V30H8zM9,29H10V30H9zM11,29H12V30H11zM14,29H15V30H14zM16,29H17V30H16zM17,29H18V30H17zM19,29H20V30H19zM21,29H22V30H21zM22,29H23V30H22zM23,29H24V30H23zM28,29H29V30H28zM31,29H32V30H31zM32,29H33V30H32zM33,29H34V30H33zM34,29H35V30H34zM35,29H36V30H35zM37,29H38V30H37zM39,29H40V30H39zM40,29H41V30H40zM41,29H42V30H41zM45,29H46V30H45zM48,29H49V30H48zM4,30H5V31H4zM5,30H6V31H5zM6,30H7V31H6zM7,30H8V31H7zM9,30H10V31H9zM10,30H11V31H10zM11,30H12V31H11zM12,30H13V31H12zM13,30H14V31H13zM14,30H15V31H14zM15,30H16V31H15zM17,30H18V31H17zM18,30H19V31H18zM20,30H21V31H20zM22,30H23V31H22zM23,30H24V31H23zM26,30H27V31H26zM29,30H30V31H29zM30,30H31V31H30zM32,30H33V31H32zM33,30H34V31H33zM34,30H35V31H34zM37,30H38V31H37zM39,30H40V31H39zM41,30H42V31H41zM44,30H45V31H44zM45,30H46V31H45zM47,30H48V31H47zM7,31H8V32H7zM9,31H10V32H9zM12,31H13V32H12zM14,31H15V32H14zM15,31H16V32H15zM16,31H17V32H16zM17,31H18V32H17zM18,31H19V32H18zM22,31H23V32H22zM23,31H24V32H23zM24,31H25V32H24zM26,31H27V32H26zM27,31H28V32H27zM28,31H29V32H28zM30,31H31V32H30zM31,31H32V32H31zM32,31H33V32H32zM34,31H35V32H34zM36,31H37V32H36zM38,31H39V32H38zM39,31H40V32H39zM40,31H41V32H40zM42,31H43V32H42zM43,31H44V32H43zM45,31H46V32H45zM46,31H47V32H46zM47,31H48V32H47zM4,32H5V33H4zM5,32H6V33H5zM6,32H7V33H6zM8,32H9V33H8zM9,32H10V33H9zM10,32H11V33H10zM14,32H15V33H14zM15,32H16V33H15zM16,32H17V33H16zM17,32H18V33H17zM19,32H20V33H19zM26,32H27V33H26zM28,32H29V33H28zM30,32H31V33H30zM35,32H36V33H35zM38,32H39V33H38zM40,32H41V33H40zM41,32H42V33H41zM44,32H45V33H44zM45,32H46V33H45zM47,32H48V33H47zM48,32H49V33H48zM6,33H7V34H6zM11,33H12V34H11zM12,33H13V34H12zM13,33H14V34H13zM15,33H16V34H15zM18,33H19V34H18zM20,33H21V34H20zM22,33H23V34H22zM24,33H25V34H24zM30,33H31V34H30zM40,33H41V34H40zM41,33H42V34H41zM42,33H43V34H42zM45,33H46V34H45zM46,33H47V34H46zM47,33H48V34H47zM48,33H49V34H48zM4,34H5V35H4zM7,34H8V35H7zM8,34H9V35H8zM10,34H11V35H10zM16,34H17V35H16zM17,34H18V35H17zM18,34H19V35H18zM20,34H21V35H20zM23,34H24V35H23zM26,34H27V35H26zM27,34H28V35H27zM28,34H29V35H28zM29,34H30V35H29zM30,34H31V35H30zM31,34H32V35H31zM34,34H35V35H34zM35,34H36V35H35zM37,34H38V35H37zM38,34H39V35H38zM40,34H41V35H40zM41,34H42V35H41zM43,34H44V35H43zM45,34H46V35H45zM47,34H48V35H47zM4,35H5V36H4zM5,35H6V36H5zM8,35H9V36H8zM11,35H12V36H11zM12,35H13V36H12zM15,35H16V36H15zM16,35H17V36H16zM19,35H20V36H19zM24,35H25V36H24zM25,35H26V36H25zM26,35H27V36H26zM27,35H28V36H27zM30,35H31V36H30zM31,35H32V36H31zM32,35H33V36H32zM36,35H37V36H36zM38,35H39V36H38zM39,35H40V36H39zM40,35H41V36H40zM42,35H43V36H42zM45,35H46V36H45zM46,35H47V36H46zM4,36H5V37H4zM7,36H8V37H7zM8,36H9V37H8zM10,36H11V37H10zM12,36H13V37H12zM13,36H14V37H13zM15,36H16V37H15zM17,36H18V37H17zM18,36H19V37H18zM19,36H20V37H19zM20,36H21V37H20zM22,36H23V37H22zM26,36H27V37H26zM28,36H29V37H28zM29,36H30V37H29zM30,36H31V37H30zM35,36H36V37H35zM37,36H38V37H37zM38,36H39V37H38zM43,36H44V37H43zM44,36H45V37H44zM45,36H46V37H45zM4,37H5V38H4zM5,37H6V38H5zM7,37H8V38H7zM8,37H9V38H8zM9,37H10V38H9zM11,37H12V38H11zM12,37H13V38H12zM13,37H14V38H13zM14,37H15V38H14zM16,37H17V38H16zM17,37H18V38H17zM18,37H19V38H18zM21,37H22V38H21zM22,37H23V38H22zM23,37H24V38H23zM24,37H25V38H24zM25,37H26V38H25zM26,37H27V38H26zM29,37H30V38H29zM30,37H31V38H30zM31,37H32V38H31zM35,37H36V38H35zM42,37H43V38H42zM43,37H44V38H43zM45,37H46V38H45zM46,37H47V38H46zM47,37H48V38H47zM48,37H49V38H48zM8,38H9V39H8zM10,38H11V39H10zM14,38H15V39H14zM15,38H16V39H15zM16,38H17V39H16zM17,38H18V39H17zM19,38H20V39H19zM20,38H21V39H20zM21,38H22V39H21zM22,38H23V39H22zM26,38H27V39H26zM27,38H28V39H27zM28,38H29V39H28zM30,38H31V39H30zM31,38H32V39H31zM33,38H34V39H33zM34,38H35V39H34zM37,38H38V39H37zM38,38H39V39H38zM46,38H47V39H46zM47,38H48V39H47zM5,39H6V40H5zM6,39H7V40H6zM7,39H8V40H7zM8,39H9V40H8zM16,39H17V40H16zM17,39H18V40H17zM18,39H19V40H18zM19,39H20V40H19zM22,39H23V40H22zM24,39H25V40H24zM25,39H26V40H25zM30,39H31V40H30zM31,39H32V40H31zM33,39H34V40H33zM36,39H37V40H36zM38,39H39V40H38zM39,39H40V40H39zM41,39H42V40H41zM42,39H43V40H42zM45,39H46V40H45zM46,39H47V40H46zM48,39H49V40H48zM4,40H5V41H4zM7,40H8V41H7zM8,40H9V41H8zM10,40H11V41H10zM13,40H14V41H13zM14,40H15V41H14zM15,40H16V41H15zM16,40H17V41H16zM19,40H20V41H19zM20,40H21V41H20zM21,40H22V41H21zM24,40H25V41H24zM25,40H26V41H25zM26,40H27V41H26zM27,40H28V41H27zM28,40H29V41H28zM29,40H30V41H29zM32,40H33V41H32zM33,40H34V41H33zM35,40H36V41H35zM40,40H41V41H40zM41,40H42V41H41zM42,40H43V41H42zM43,40H44V41H43zM44,40H45V41H44zM45,40H46V41H45zM12,41H13V42H12zM14,41H15V42H14zM15,41H16V42H15zM18,41H19V42H18zM20,41H21V42H20zM23,41H24V42H23zM24,41H25V42H24zM28,41H29V42H28zM32,41H33V42H32zM35,41H36V42H35zM39,41H40V42H39zM40,41H41V42H40zM44,41H45V42H44zM45,41H46V42H45zM47,41H48V42H47zM48,41H49V42H48zM4,42H5V43H4zM5,42H6V43H5zM6,42H7V43H6zM7,42H8V43H7zM8,42H9V43H8zM9,42H10V43H9zM10,42H11V43H10zM16,42H17V43H16zM17,42H18V43H17zM18,42H19V43H18zM19,42H20V43H19zM20,42H21V43H20zM22,42H23V43H22zM24,42H25V43H24zM26,42H27V43H26zM28,42H29V43H28zM30,42H31V43H30zM31,42H32V43H31zM32,42H33V43H32zM33,42H34V43H33zM37,42H38V43H37zM38,42H39V43H38zM40,42H41V43H40zM42,42H43V43H42zM44,42H45V43H44zM47,42H48V43H47zM4,43H5V44H4zM10,43H11V44H10zM14,43H15V44H14zM15,43H16V44H15zM16,43H17V44H16zM17,43H18V44H17zM24,43H25V44H24zM28,43H29V44H28zM30,43H31V44H30zM32,43H33V44H32zM33,43H34V44H33zM34,43H35V44H34zM36,43H37V44H36zM37,43H38V44H37zM40,43H41V44H40zM44,43H45V44H44zM45,43H46V44H45zM46,43H47V44H46zM4,44H5V45H4zM6,44H7V45H6zM7,44H8V45H7zM8,44H9V45H8zM10,44H11V45H10zM12,44H13V45H12zM13,44H14V45H13zM15,44H16V45H15zM17,44H18V45H17zM20,44H21V45H20zM23,44H24V45H23zM24,44H25V45H24zM25,44H26V45H25zM26,44H27V45H26zM27,44H28V45H27zM28,44H29V45H28zM31,44H32V45H31zM33,44H34V45H33zM35,44H36V45H35zM39,44H40V45H39zM40,44H41V45H40zM41,44H42V45H41zM42,44H43V45H42zM43,44H44V45H43zM44,44H45V45H44zM48,44H49V45H48zM4,45H5V46H4zM6,45H7V46H6zM7,45H8V46H7zM8,45H9V46H8zM10,45H11V46H10zM12,45H13V46H12zM14,45H15V46H14zM17,45H18V46H17zM21,45H22V46H21zM22,45H23V46H22zM23,45H24V46H23zM29,45H30V46H29zM31,45H32V46H31zM35,45H36V46H35zM36,45H37V46H36zM43,45H44V46H43zM44,45H45V46H44zM45,45H46V46H45zM47,45H48V46H47zM48,45H49V46H48zM4,46H5V47H4zM6,46H7V47H6zM7,46H8V47H7zM8,46H9V47H8zM10,46H11V47H10zM12,46H13V47H12zM14,46H15V47H14zM20,46H21V47H20zM21,46H22V47H21zM24,46H25V47H24zM25,46H26V47H25zM26,46H27V47H26zM27,46H28V47H27zM28,46H29V47H28zM29,46H30V47H29zM30,46H31V47H30zM31,46H32V47H31zM33,46H34V47H33zM35,46H36V47H35zM37,46H38V47H37zM38,46H39V47H38zM40,46H41V47H40zM41,46H42V47H41zM42,46H43V47H42zM46,46H47V47H46zM4,47H5V48H4zM10,47H11V48H10zM13,47H14V48H13zM14,47H15V48H14zM17,47H18V48H17zM18,47H19V48H18zM19,47H20V48H19zM22,47H23V48H22zM25,47H26V48H25zM29,47H30V48H29zM30,47H31V48H30zM31,47H32V48H31zM32,47H33V48H32zM34,47H35V48H34zM38,47H39V48H38zM39,47H40V48H39zM40,47H41V48H40zM43,47H44V48H43zM45,47H46V48H45zM46,47H47V48H46zM4,48H5V49H4zM5,48H6V49H5zM6,48H7V49H6zM7,48H8V49H7zM8,48H9V49H8zM9,48H10V49H9zM10,48H11V49H10zM13,48H14V49H13zM15,48H16V49H15zM17,48H18V49H17zM19,48H20V49H19zM20,48H21V49H20zM21,48H22V49H21zM23,48H24V49H23zM25,48H26V49H25zM26,48H27V49H26zM29,48H30V49H29zM30,48H31V49H30zM31,48H32V49H31zM34,48H35V49H34zM35,48H36V49H35zM36,48H37V49H36zM37,48H38V49H37zM38,48H39V49H38zM39,48H40V49H39zM41,48H42V49H41zM42,48H43V49H42zM47,48H48V49H47z" id="qr-path" fill="#000000" fill-opacity="1" fill-rule="nonzero" stroke="none"/></svg>